<?xml version="1.0" encoding="utf-8"?>
<!-- Generator: Adobe Illustrator 16.0.0, SVG Export Plug-In . SVG Version: 6.00 Build 0)  -->
<!DOCTYPE svg PUBLIC "-//W3C//DTD SVG 1.1//EN" "http://www.w3.org/Graphics/SVG/1.1/DTD/svg11.dtd">
<svg version="1.1" id="Layer_1" xmlns="http://www.w3.org/2000/svg" xmlns:xlink="http://www.w3.org/1999/xlink" x="0px" y="0px"
	 width="612px" height="792px" viewBox="0 0 612 792" enable-background="new 0 0 612 792" xml:space="preserve">
<path fill="#414042" stroke="#414042" stroke-miterlimit="10" d="M248.44,282.12c-0.7-0.97-1.71-1.7-3.04-2.19
	c-1.33-0.51-2.93-0.76-4.8-0.76h-7.41v17.93h7.39c1.88,0,3.48-0.25,4.82-0.75c1.33-0.5,2.34-1.23,3.04-2.2
	c0.7-0.96,1.04-2.12,1.04-3.48v-5.07C249.48,284.24,249.14,283.08,248.44,282.12z M246.13,290.78c0,1.24-0.48,2.21-1.43,2.9
	c-0.95,0.68-2.28,1.03-4.01,1.03h-4.22v-13.15h4.22c1.73,0,3.06,0.35,4.01,1.04c0.95,0.68,1.43,1.65,1.43,2.9V290.78z"/>
<path fill="#414042" stroke="#414042" stroke-miterlimit="10" d="M257.565,296.463c-1.244-0.545-2.201-1.318-2.882-2.315
	c-0.682-1-1.023-2.154-1.023-3.474v-5.077c0-1.319,0.341-2.474,1.023-3.473c0.681-0.998,1.638-1.77,2.882-2.315
	c1.247-0.55,2.68-0.825,4.31-0.825c1.625,0,3.065,0.275,4.303,0.825c1.246,0.545,2.209,1.318,2.887,2.315
	c0.678,0.999,1.019,2.154,1.019,3.473v5.077c0,1.319-0.341,2.474-1.019,3.474c-0.678,0.998-1.642,1.77-2.887,2.315
	c-1.237,0.549-2.678,0.825-4.303,0.825C260.246,297.289,258.813,297.013,257.565,296.463z M264.42,294.308
	c0.736-0.334,1.305-0.803,1.702-1.416c0.402-0.612,0.605-1.326,0.605-2.129v-5.255c0-0.803-0.203-1.517-0.605-2.129
	c-0.397-0.612-0.966-1.082-1.702-1.414c-0.733-0.333-1.586-0.5-2.545-0.5c-0.967,0-1.817,0.167-2.552,0.5
	c-0.728,0.333-1.297,0.802-1.699,1.414c-0.403,0.612-0.603,1.326-0.603,2.129v5.255c0,0.803,0.199,1.517,0.603,2.129
	c0.402,0.612,0.971,1.082,1.699,1.416c0.735,0.333,1.585,0.498,2.552,0.498C262.834,294.806,263.687,294.641,264.42,294.308z"/>
<path fill="#414042" stroke="#414042" stroke-miterlimit="10" d="M287.024,281.341l-10.171,13.367h10.491v2.392h-14.528v-2.169
	l10.254-13.367h-9.963v-2.392h13.917V281.341z"/>
<path fill="#414042" stroke="#414042" stroke-miterlimit="10" d="M291.682,279.172h2.977l11.422,13.86l-0.385,0.319v-14.179h3.252
	v17.915h-3.009l-11.393-13.651l0.386-0.319v13.97h-3.25V279.172z"/>
<path fill="#414042" stroke="#414042" stroke-miterlimit="10" d="M313.847,294.459h3.438v2.641h-3.438V294.459z"/>
<path fill="#414042" stroke="#414042" stroke-miterlimit="10" d="M325.458,297.101h-3.271v-17.929h3.271V297.101z"/>
<path fill="#414042" stroke="#414042" stroke-miterlimit="10" d="M334.666,296.463c-1.234-0.545-2.204-1.318-2.886-2.315
	c-0.679-1-1.012-2.154-1.012-3.474v-5.077c0-1.319,0.333-2.474,1.012-3.473c0.682-0.998,1.651-1.77,2.886-2.315
	c1.243-0.55,2.677-0.825,4.315-0.825c1.623,0,3.057,0.275,4.303,0.825c1.244,0.545,2.199,1.318,2.881,2.315
	c0.682,0.999,1.024,2.154,1.024,3.473v5.077c0,1.319-0.343,2.474-1.024,3.474c-0.682,0.998-1.637,1.77-2.881,2.315
	c-1.246,0.549-2.68,0.825-4.303,0.825C337.343,297.289,335.909,297.013,334.666,296.463z M341.525,294.308
	c0.729-0.334,1.297-0.803,1.706-1.416c0.396-0.612,0.596-1.326,0.596-2.129v-5.255c0-0.803-0.2-1.517-0.596-2.129
	c-0.409-0.612-0.977-1.082-1.706-1.414c-0.737-0.333-1.586-0.5-2.544-0.5c-0.976,0-1.82,0.167-2.547,0.5
	c-0.742,0.333-1.311,0.802-1.706,1.414c-0.398,0.612-0.611,1.326-0.611,2.129v5.255c0,0.803,0.213,1.517,0.611,2.129
	c0.396,0.612,0.964,1.082,1.706,1.416c0.727,0.333,1.571,0.498,2.547,0.498C339.939,294.806,340.788,294.641,341.525,294.308z"/>
</svg>
