<svg id="Capa_1" enable-background="new 0 0 509.42 509.42" height="512" viewBox="0 0 509.42 509.42" width="512" xmlns="http://www.w3.org/2000/svg"><g><path d="m491.579 455.702v-90.458h.648c4.738 0 8.855-3.044 10.244-7.574 1.389-4.531-.315-9.359-4.241-12.017l-20.483-13.853c-24.173-16.351-43.993-38.715-57.316-64.677-2.685-5.229-8.004-8.479-13.882-8.479h-17.483v-31.69h11.689c4.46 0 8.343-2.862 9.664-7.122 1.32-4.26-.264-8.815-3.942-11.338l-56.456-38.712c-1.692-1.159-3.67-1.772-5.72-1.772h-1.482v-20.01h35.632c4.01 0 7.594-2.543 8.917-6.327 1.324-3.784.107-8.007-3.026-10.505l-48.723-38.863c-1.667-1.33-3.76-2.062-5.892-2.062h-2.125v-20.526h27.565c3.096 0 5.923-1.821 7.203-4.641 1.28-2.819.79-6.146-1.243-8.471l-41.235-47.252c-1.503-1.74-3.684-2.737-5.984-2.737h-117.394c-2.291 0-4.466.991-5.96 2.709l-41.255 47.275c-2.038 2.33-2.528 5.657-1.248 8.477 1.279 2.819 4.107 4.641 7.203 4.641h27.563v20.525h-2.125c-2.132 0-4.224.732-5.891 2.062l-48.722 38.862c-3.135 2.499-4.352 6.722-3.028 10.506s4.908 6.327 8.917 6.327h35.632v20.011h-1.482c-2.05 0-4.028.613-5.72 1.772 0 0-.001.001-.001.001l-56.454 38.711c-3.678 2.522-5.262 7.078-3.942 11.338s5.204 7.122 9.664 7.122h11.689v31.69h-18.483c-5.879 0-11.198 3.249-13.882 8.479-13.323 25.962-33.143 48.326-57.316 64.676l-20.485 13.854c-3.925 2.656-5.628 7.484-4.24 12.016 1.389 4.53 5.506 7.574 10.244 7.574h1.648v90.279c-10.653 1.629-18.84 10.854-18.84 21.956v17.825c0 4.143 3.358 7.5 7.5 7.5h494.42c4.142 0 7.5-3.357 7.5-7.5v-17.825c0-10.751-7.68-19.741-17.841-21.777zm-293.762-385.985h59.444c4.142 0 7.5-3.357 7.5-7.5s-3.358-7.5-7.5-7.5h-86.411l28.886-33.102h110.949l28.886 33.102h-50.348c-4.142 0-7.5 3.357-7.5 7.5s3.358 7.5 7.5 7.5h23.379v20.525h-29.776v-3.441c0-4.143-3.358-7.5-7.5-7.5s-7.5 3.357-7.5 7.5v3.441h-25.234v-3.441c0-4.143-3.358-7.5-7.5-7.5s-7.5 3.357-7.5 7.5v3.441h-29.776v-20.525zm-15.215 78.283h16.247c4.142 0 7.5-3.357 7.5-7.5s-3.358-7.5-7.5-7.5h-51.012l34.8-27.758h145.146l34.8 27.758h-131.772c-4.142 0-7.5 3.357-7.5 7.5s3.358 7.5 7.5 7.5h97.008v20.011h-28.824v-5.181c0-4.143-3.358-7.5-7.5-7.5s-7.5 3.357-7.5 7.5v5.181h-57.568v-5.181c0-4.143-3.358-7.5-7.5-7.5s-7.5 3.357-7.5 7.5v5.181h-28.824v-20.011zm-14.969 35.011h175.154l42.211 28.944h-259.576zm-31.279 43.944h237.711v31.69h-25.709v-11.173c0-4.143-3.358-7.5-7.5-7.5s-7.5 3.357-7.5 7.5v11.173h-40.31v-11.173c0-4.143-3.358-7.5-7.5-7.5s-7.5 3.357-7.5 7.5v11.173h-45.674v-11.173c0-4.143-3.358-7.5-7.5-7.5s-7.5 3.357-7.5 7.5v11.173h-40.31v-11.173c0-4.143-3.358-7.5-7.5-7.5s-7.5 3.357-7.5 7.5v11.173h-25.709v-31.69zm-34.02 47.019c.104-.202.309-.328.537-.328h303.678c.228 0 .433.126.537.328 8.555 16.67 19.594 31.96 32.6 45.357h-369.952c13.006-13.397 24.045-28.687 32.6-45.357zm269.226 91.27c4.142 0 7.5-3.357 7.5-7.5s-3.358-7.5-7.5-7.5h-340.383l8.9-6.02c4.583-3.1 9.011-6.41 13.294-9.894h402.678c4.282 3.484 8.712 6.795 13.295 9.895l8.899 6.019h-74.72c-4.142 0-7.5 3.357-7.5 7.5s3.358 7.5 7.5 7.5h73.057v90.023h-179.856v-6.957c0-22.891-18.623-41.514-41.514-41.514s-41.514 18.623-41.514 41.514v6.957h-179.855v-90.023zm-356.56 112.235c0-3.977 3.235-7.212 7.212-7.212h191.484v17.537h-198.696zm213.696 10.326v-39.494c0-14.62 11.894-26.514 26.514-26.514s26.514 11.894 26.514 26.514v39.494zm265.724 0h-197.696v-17.537h190.484c3.977 0 7.212 3.235 7.212 7.212z"/><path d="m72.537 442.494h22.694c6.094 0 11.051-4.957 11.051-11.051v-19.246c0-12.351-10.048-22.398-22.398-22.398s-22.399 10.048-22.399 22.398v19.246c0 6.094 4.958 11.051 11.052 11.051zm3.948-30.297c0-4.079 3.319-7.398 7.399-7.398s7.398 3.319 7.398 7.398v15.297h-14.797z"/><path d="m142.912 442.494h22.694c6.094 0 11.051-4.957 11.051-11.051v-19.246c0-12.351-10.048-22.398-22.398-22.398s-22.399 10.048-22.399 22.398v19.246c0 6.094 4.958 11.051 11.052 11.051zm3.948-30.297c0-4.079 3.319-7.398 7.399-7.398s7.398 3.319 7.398 7.398v15.297h-14.797z"/><path d="m415.188 442.494h22.695c6.094 0 11.051-4.957 11.051-11.051v-19.246c0-12.351-10.048-22.398-22.399-22.398s-22.398 10.048-22.398 22.398v19.246c0 6.094 4.958 11.051 11.051 11.051zm3.949-30.297c0-4.079 3.319-7.398 7.399-7.398s7.398 3.319 7.398 7.398v15.297h-14.797z"/><path d="m344.814 442.494h22.694c6.094 0 11.052-4.957 11.052-11.051v-19.246c0-12.351-10.048-22.398-22.399-22.398s-22.398 10.048-22.398 22.398v19.246c0 6.094 4.957 11.051 11.051 11.051zm3.949-30.297c0-4.079 3.319-7.398 7.398-7.398s7.399 3.319 7.399 7.398v15.297h-14.797z"/><path d="m195.079 393.697h121.022c4.142 0 7.5-3.357 7.5-7.5s-3.358-7.5-7.5-7.5h-121.022c-4.142 0-7.5 3.357-7.5 7.5s3.358 7.5 7.5 7.5z"/></g></svg>